<svg id="Layer_1" data-name="Layer 1" xmlns="http://www.w3.org/2000/svg" xmlns:xlink="http://www.w3.org/1999/xlink" viewBox="0 0 109.09 109.09"><defs><style>.cls-1{fill:#231f20;}.cls-2{fill:url(#radial-gradient);}.cls-3{fill:url(#radial-gradient-2);}.cls-4{fill:url(#linear-gradient);}.cls-5{fill:url(#linear-gradient-2);}.cls-6{fill:url(#radial-gradient-3);}</style><radialGradient id="radial-gradient" cx="24.93" cy="30.68" r="0.01" gradientUnits="userSpaceOnUse"><stop offset="0" stop-color="#fff"/><stop offset="1" stop-color="#d1d3d4"/></radialGradient><radialGradient id="radial-gradient-2" cx="73.93" cy="415" r="27.5" xlink:href="#radial-gradient"/><linearGradient id="linear-gradient" x1="46.43" y1="419" x2="105.69" y2="419" gradientTransform="translate(426.12 661.5) rotate(135)" xlink:href="#radial-gradient"/><linearGradient id="linear-gradient-2" x1="54.55" y1="75.98" x2="75.65" y2="75.98" xlink:href="#radial-gradient"/><radialGradient id="radial-gradient-3" cx="46.43" cy="401.37" r="0" xlink:href="#radial-gradient"/></defs><circle class="cls-1" cx="54.55" cy="54.55" r="54.55"/><polygon class="cls-2" points="24.95 30.67 24.92 30.7 24.92 30.67 24.95 30.67"/><path class="cls-3" d="M97.19,442.5,60.92,406.22v32.16H46.43V391.74l0,0a14.49,14.49,0,0,1,20.45,0L97.19,422A14.5,14.5,0,0,1,97.19,442.5Z" transform="translate(-21.51 -361.05)"/><path class="cls-4" d="M80.76,384.34H83.3a0,0,0,0,1,0,0v57.37a11.94,11.94,0,0,1-11.94,11.94H68.82a0,0,0,0,1,0,0V396.29A11.94,11.94,0,0,1,80.76,384.34Z" transform="translate(-187.95 408.02) rotate(-135)"/><polyline class="cls-5" points="75.65 81.45 54.55 81.45 65.1 70.5"/><path class="cls-6" d="M46.43,401.37" transform="translate(-21.51 -361.05)"/></svg>