<svg id="Layer_1" data-name="Layer 1" xmlns="http://www.w3.org/2000/svg" xmlns:xlink="http://www.w3.org/1999/xlink" viewBox="0 0 466.42 67.9"><defs><style>.cls-1{fill:url(#radial-gradient);}.cls-2{fill:url(#radial-gradient-2);}.cls-3{fill:url(#linear-gradient);}.cls-4{fill:url(#linear-gradient-2);}.cls-5{fill:url(#radial-gradient-3);}.cls-6{font-size:59.57px;fill:#fff;font-family:SpaceGrotesk-SemiBold, Space Grotesk;font-weight:600;}.cls-7{letter-spacing:-0.01em;}.cls-8{letter-spacing:-0.02em;}.cls-9{letter-spacing:-0.01em;}.cls-10{letter-spacing:-0.03em;}.cls-11{letter-spacing:0em;}</style><radialGradient id="radial-gradient" cx="0.01" cy="4.23" r="0.01" gradientUnits="userSpaceOnUse"><stop offset="0" stop-color="#fff"/><stop offset="1" stop-color="#d1d3d4"/></radialGradient><radialGradient id="radial-gradient-2" cx="74.99" cy="414.36" r="27.5" xlink:href="#radial-gradient"/><linearGradient id="linear-gradient" x1="47.5" y1="418.36" x2="106.75" y2="418.36" gradientTransform="translate(427.48 659.65) rotate(135)" xlink:href="#radial-gradient"/><linearGradient id="linear-gradient-2" x1="29.63" y1="49.52" x2="50.73" y2="49.52" xlink:href="#radial-gradient"/><radialGradient id="radial-gradient-3" cx="47.5" cy="400.73" r="0" xlink:href="#radial-gradient"/></defs><polygon class="cls-1" points="0.03 4.21 0 4.24 0 4.21 0.03 4.21"/><path class="cls-2" d="M98.25,441.85,62,405.58v32.15H47.5V391.1l0,0a14.5,14.5,0,0,1,20.46,0l30.27,30.27A14.47,14.47,0,0,1,98.25,441.85Z" transform="translate(-47.5 -386.86)"/><path class="cls-3" d="M81.82,383.7h2.54a0,0,0,0,1,0,0v57.37A11.94,11.94,0,0,1,72.42,453H69.88a0,0,0,0,1,0,0V395.64A11.94,11.94,0,0,1,81.82,383.7Z" transform="translate(-211.67 381.86) rotate(-135)"/><polyline class="cls-4" points="50.73 55 29.63 55 40.18 44.05"/><path class="cls-5" d="M47.5,400.73" transform="translate(-47.5 -386.86)"/><text class="cls-6" transform="translate(65.61 50.92)">i<tspan class="cls-7" x="15.55" y="0">n</tspan><tspan class="cls-8" x="51.35" y="0">t</tspan><tspan x="77.51" y="0">eg</tspan><tspan class="cls-9" x="150.19" y="0">r</tspan><tspan class="cls-10" x="172.71" y="0">a</tspan><tspan class="cls-8" x="205" y="0">t</tspan><tspan class="cls-11" x="231.15" y="0">eXp</tspan><tspan class="cls-8" x="342.08" y="0">r</tspan><tspan x="364.3" y="0">o</tspan></text></svg>